<?xml version="1.0" standalone="yes"?>

<svg version="1.1" viewBox="0.0 0.0 96.0 96.0" fill="none" stroke="none" stroke-linecap="square" stroke-miterlimit="10" xmlns="http://www.w3.org/2000/svg" xmlns:xlink="http://www.w3.org/1999/xlink"><clipPath id="p.0"><path d="m0 0l96.0 0l0 96.0l-96.0 0l0 -96.0z" clip-rule="nonzero"></path></clipPath><g clip-path="url(#p.0)"><path fill="#000000" fill-opacity="0.0" d="m0 0l96.0 0l0 96.0l-96.0 0z" fill-rule="evenodd"></path><path fill="#22262e" d="m0.9328226 17.885803l0 0c0 -9.4254 7.640796 -17.066196 17.066195 -17.066196l60.92273 0l0 0c4.5262375 0 8.867088 1.7980406 12.067619 4.998573c3.2005386 3.200533 4.9985733 7.5413866 4.9985733 12.067623l0 61.048714c0 9.4254 -7.640793 17.066193 -17.066193 17.066193l-60.92273 0c-9.425399 0 -17.066195 -7.640793 -17.066195 -17.066193z" fill-rule="evenodd"></path><path stroke="#666666" stroke-width="1.0" stroke-linejoin="round" stroke-linecap="butt" d="m0.9328226 17.885803l0 0c0 -9.4254 7.640796 -17.066196 17.066195 -17.066196l60.92273 0l0 0c4.5262375 0 8.867088 1.7980406 12.067619 4.998573c3.2005386 3.200533 4.9985733 7.5413866 4.9985733 12.067623l0 61.048714c0 9.4254 -7.640793 17.066193 -17.066193 17.066193l-60.92273 0c-9.425399 0 -17.066195 -7.640793 -17.066195 -17.066193z" fill-rule="evenodd"></path><path fill="#000000" fill-opacity="0.0" d="m4.7060366 24.72441l68.566925 0l0 46.960625l-68.566925 0z" fill-rule="evenodd"></path><path fill="#93c47d" d="m15.440412 54.097225l6.750001 -0.65625q0.609375 3.40625 2.46875 5.0q1.875 1.59375 5.03125 1.59375q3.359373 0 5.046873 -1.421875q1.703125 -1.421875 1.703125 -3.3125q0 -1.21875 -0.71875 -2.078125q-0.703125 -0.859375 -2.484375 -1.484375q-1.21875 -0.421875 -5.562498 -1.5q-5.578125 -1.390625 -7.828125 -3.40625q-3.15625 -2.828125 -3.15625 -6.90625q0 -2.625 1.484375 -4.90625q1.484375 -2.296875 4.28125 -3.484377q2.8125 -1.203125 6.765625 -1.203125q6.468748 0 9.734373 2.843752q3.28125 2.828125 3.4375 7.5625l-6.9375 0.3125q-0.4375 -2.65625 -1.90625 -3.8125q-1.46875 -1.15625 -4.390623 -1.15625q-3.03125 0 -4.734375 1.234375q-1.109375 0.796875 -1.109375 2.140625q0 1.21875 1.03125 2.078125q1.3125 1.109375 6.375 2.3125q5.062498 1.1875 7.484373 2.46875q2.4375 1.265625 3.796875 3.484375q1.375 2.21875 1.375 5.46875q0 2.953125 -1.640625 5.53125q-1.640625 2.578125 -4.640625 3.8437462q-3.0 1.25 -7.468748 1.25q-6.515625 0 -10.015625 -3.0156212q-3.484375 -3.015625 -4.171876 -8.78125z" fill-rule="nonzero"></path><path fill="#000000" fill-opacity="0.0" d="m34.4147 25.133858l68.566925 0l0 46.960632l-68.566925 0z" fill-rule="evenodd"></path><path fill="#93c47d" d="m46.82095 65.694176l0 -34.35938l10.375 0l6.234375 23.4375l6.171871 -23.4375l10.40625 0l0 34.35938l-6.453125 0l0 -27.046879l-6.8125 27.046879l-6.687496 0l-6.796875 -27.046879l0 27.046879l-6.4375 0z" fill-rule="nonzero"></path><path fill="#000000" fill-opacity="0.0" d="m3.992126 30.585302l78.04724 0l0 56.34645l-78.04724 0z" fill-rule="evenodd"></path><path fill="#ffffff" d="m55.01184 66.27603l-0.46875 2.453125l-3.65625 0l-1.6875 7.84375l-4.734375 0l1.65625 -7.84375q-8.265625 0 -9.671875 0.09375l-0.453125 0q-0.65625 0 -0.65625 -0.46875q0 -0.53125 1.796875 -3.1875q1.8125 -2.6718788 4.5 -5.734379q2.6875 -3.078125 5.640625 -5.90625q2.953125 -2.84375 6.671875 -5.90625l2.109375 0q-0.9375 3.421875 -2.328125 9.125q-1.390625 5.703125 -2.265625 9.531254l3.546875 0zm-8.34375 0q0.0625 -0.375 0.171875 -0.90625q0.125 -0.546875 3.03125 -12.343754q-5.625 5.375 -7.5 7.65625q-1.875 2.28125 -4.21875 5.593754l8.515625 0z" fill-rule="nonzero"></path></g></svg>

